<?xml version="1.0" encoding="UTF-8"?>
<svg id="Camada_1" xmlns="http://www.w3.org/2000/svg" version="1.1" width="38" height="38" viewBox="0 0 38 38">
  <!-- Generator: Adobe Illustrator 29.5.1, SVG Export Plug-In . SVG Version: 2.1.0 Build 141)  -->
  <defs>
    <style>
      .st0 {
      fill: #c58de7;
      }
    </style>
  </defs>
  <path class="st0"
    d="M14.82,37.65c-2.75-.62-5.37-1.88-7.58-3.64l11.69-14.69L2,27.46C.75,24.89.12,22.13.12,19.27l18.79-.03L1.97,11.07c1.22-2.53,3.02-4.8,5.21-6.57l11.76,14.64L14.76.83c1.38-.32,2.8-.48,4.23-.48,1.41,0,2.8.15,4.15.46l-4.1,18.32,11.69-14.69c2.21,1.75,4.02,4.01,5.25,6.54l-16.85,8.21,18.76.05c0,2.87-.63,5.62-1.87,8.2l-16.91-8.16,11.68,14.72c-2.21,1.76-4.83,3.03-7.57,3.66l-4.18-18.3-4.21,18.31Z" />
</svg>